<svg xmlns="http://www.w3.org/2000/svg" viewBox="0 0 64 64"><title>pound-coin</title><g id="pound-coin"><line x1="6" y1="9.463" x2="6" y2="10.878" style="fill: none; stroke: rgb(255, 255, 255); stroke-linecap: round; stroke-linejoin: round; stroke-width: 2px;" id="id_101"></line><line x1="6" y1="15.122" x2="6" y2="16.537" style="fill: none; stroke: rgb(255, 255, 255); stroke-linecap: round; stroke-linejoin: round; stroke-width: 2px;" id="id_102"></line><line x1="2.463" y1="13" x2="3.878" y2="13" style="fill: none; stroke: rgb(255, 255, 255); stroke-linecap: round; stroke-linejoin: round; stroke-width: 2px;" id="id_103"></line><line x1="8.122" y1="13" x2="9.537" y2="13" style="fill: none; stroke: rgb(255, 255, 255); stroke-linecap: round; stroke-linejoin: round; stroke-width: 2px;" id="id_104"></line><circle cx="17.5" cy="6.5" r="1.069" id="id_105" style="fill: rgb(255, 255, 255);"></circle><path d="M25,60H55a3,3,0,0,0,3-3h0a3,3,0,0,0-3-3H39.172" style="fill: none; stroke: rgb(255, 255, 255); stroke-linecap: round; stroke-linejoin: round; stroke-width: 2px;" id="id_106"></path><path d="M53,54a3,3,0,0,0,3-3h0a3,3,0,0,0-3-3" style="fill: none; stroke: rgb(255, 255, 255); stroke-linecap: round; stroke-linejoin: round; stroke-width: 2px;" id="id_107"></path><path d="M42.955,48H55a3,3,0,0,0,3-3h0a3,3,0,0,0-3-3H44.374" style="fill: none; stroke: rgb(255, 255, 255); stroke-linecap: round; stroke-linejoin: round; stroke-width: 2px;" id="id_108"></path><path d="M54,42a3,3,0,0,0,3-3h0a3,3,0,0,0-3-3H43.557" style="fill: none; stroke: rgb(255, 255, 255); stroke-linecap: round; stroke-linejoin: round; stroke-width: 2px;" id="id_109"></path><path d="M51,36a3,3,0,0,0,3-3h0a3,3,0,0,0-3-3" style="fill: none; stroke: rgb(255, 255, 255); stroke-linecap: round; stroke-linejoin: round; stroke-width: 2px;" id="id_110"></path><path d="M40.806,30H53a3,3,0,0,0,3-3h0a3,3,0,0,0-3-3" style="fill: none; stroke: rgb(255, 255, 255); stroke-linecap: round; stroke-linejoin: round; stroke-width: 2px;" id="id_111"></path><path d="M33.493,24H56a3,3,0,0,0,3-3h0a3,3,0,0,0-3-3H29a3,3,0,0,0-3,3v.544" style="fill: none; stroke: rgb(255, 255, 255); stroke-linecap: round; stroke-linejoin: round; stroke-width: 2px;" id="id_112"></path><path d="M50,18a3,3,0,0,0,3-3h0a3,3,0,0,0-3-3H23a3,3,0,0,0-3,3h0a3,3,0,0,0,3,3h6" style="fill: none; stroke: rgb(255, 255, 255); stroke-linecap: round; stroke-linejoin: round; stroke-width: 2px;" id="id_113"></path><circle cx="25" cy="41" r="19" style="fill: none; stroke: rgb(255, 255, 255); stroke-linecap: round; stroke-linejoin: round; stroke-width: 2px;" id="id_114"></circle><circle cx="25" cy="41" r="14" style="fill: none; stroke: rgb(255, 255, 255); stroke-linecap: round; stroke-linejoin: round; stroke-width: 2px; stroke-dasharray: 3.99734, 3.99734;" id="id_115"></circle><path d="M27.737,35.007A2,2,0,0,0,26,34h-.706A3.294,3.294,0,0,0,22,37.294l.454,2.591C24,43,21.656,44.031,21,46h8V44" style="fill: none; stroke: rgb(255, 255, 255); stroke-linecap: round; stroke-linejoin: round; stroke-width: 2px;" id="id_116"></path><line x1="21" y1="40" x2="25" y2="40" style="fill: none; stroke: rgb(255, 255, 255); stroke-linecap: round; stroke-linejoin: round; stroke-width: 2px;" id="id_117"></line></g></svg>